# xmcd
#
# Track frame offsets:
#	150
#	12918
#	25378
#	36380
#	51067
#	63953
#	76453
#	89346
#	100208
#	112645
#	126632
#	138873
#	152992
#	164922
#	177421
#	190590
#	203285
#	214326
#
# Disc length: 2992 seconds
#
# Revision: 0
# Processed by: cddbd v1.5.1PL2 Copyright (c) Steve Scherf et al.
# Submitted via: SynApp - FreeCDDB Version: 2.0
#
DISCID=f70bae12
DTITLE=Diverse - Best of Country Disk 2
DYEAR=2001
DGENRE=Country
TTITLE0=Tex Ritter and His Texans - (I Got Spurs That) Jingle, Jangle, Jingle
TTITLE1=Hank Williams - Move It on Over
TTITLE2=Gene Autry - You Are My Sunshine
TTITLE3=Arthur Foley - Old Shep
TTITLE4=Merle Travis - Sixteen Tons
TTITLE5=Roy Acuff and His Smokey Mountain Boys - Wreck on the Highway
TTITLE6=Spade Cooley - Shame on You
TTITLE7=Roy Rogers - My Chickashay Gal
TTITLE8=The Sons of the Pioneers - Cool Water
TTITLE9=Ernest Tubb - Tomorrow Never Comes
TTITLE10=Ted Daffan's Texans - Born to Lose
TTITLE11=Patsy Montana and the Prairie Ramblers - I Want to Be a Cowboy's Sweetheart
TTITLE12=Bob Wills and His Texas Playboys - New San Antonio Rose
TTITLE13=Johnny Bond - I'll Step Aside
TTITLE14=Wesley Tuttle - With Tears in My Eyes
TTITLE15=Jimmy Wakely - One Has My Name (The Other Has My Heart)
TTITLE16=Ernie "Tennessee" Ford - Tennessee Border
TTITLE17=Eddy Arnold - Cattle Call
EXTD=
EXTT0=
EXTT1=
EXTT2=
EXTT3=
EXTT4=
EXTT5=
EXTT6=
EXTT7=
EXTT8=
EXTT9=
EXTT10=
EXTT11=
EXTT12=
EXTT13=
EXTT14=
EXTT15=
EXTT16=
EXTT17=
PLAYORDER=
